<svg width="16" height="16" viewBox="0 0 24 24" fill="none" xmlns="http://www.w3.org/2000/svg">
<path fill-rule="evenodd" clip-rule="evenodd" d="M2.469 9.96903C2.53867 9.89918 2.62143 9.84377 2.71255 9.80596C2.80367 9.76815 2.90135 9.74869 3 9.74869C3.09865 9.74869 3.19633 9.76815 3.28745 9.80596C3.37857 9.84377 3.46133 9.89918 3.531 9.96903L12 18.4395L20.469 9.96903C20.6098 9.8282 20.8008 9.74908 21 9.74908C21.1992 9.74908 21.3902 9.8282 21.531 9.96903C21.6718 10.1099 21.7509 10.3009 21.7509 10.5C21.7509 10.6992 21.6718 10.8902 21.531 11.031L12.531 20.031C12.4613 20.1009 12.3786 20.1563 12.2874 20.1941C12.1963 20.2319 12.0986 20.2514 12 20.2514C11.9013 20.2514 11.8037 20.2319 11.7125 20.1941C11.6214 20.1563 11.5387 20.1009 11.469 20.031L2.469 11.031C2.39915 10.9614 2.34374 10.8786 2.30593 10.7875C2.26812 10.6964 2.24866 10.5987 2.24866 10.5C2.24866 10.4014 2.26812 10.3037 2.30593 10.2126C2.34374 10.1215 2.39915 10.0387 2.469 9.96903Z" fill="#FFFFFF"/>
<path fill-rule="evenodd" clip-rule="evenodd" d="M2.469 3.96903C2.53867 3.89918 2.62143 3.84377 2.71255 3.80596C2.80367 3.76815 2.90135 3.74869 3 3.74869C3.09865 3.74869 3.19633 3.76815 3.28745 3.80596C3.37857 3.84377 3.46133 3.89918 3.531 3.96903L12 12.4395L20.469 3.96903C20.5387 3.8993 20.6215 3.84398 20.7126 3.80624C20.8037 3.76851 20.9014 3.74908 21 3.74908C21.0986 3.74908 21.1963 3.76851 21.2874 3.80624C21.3785 3.84398 21.4613 3.8993 21.531 3.96903C21.6007 4.03876 21.656 4.12154 21.6938 4.21265C21.7315 4.30376 21.7509 4.40141 21.7509 4.50003C21.7509 4.59864 21.7315 4.69629 21.6938 4.7874C21.656 4.87851 21.6007 4.9613 21.531 5.03103L12.531 14.031C12.4613 14.1009 12.3786 14.1563 12.2874 14.1941C12.1963 14.2319 12.0986 14.2514 12 14.2514C11.9013 14.2514 11.8037 14.2319 11.7125 14.1941C11.6214 14.1563 11.5387 14.1009 11.469 14.031L2.469 5.03103C2.39915 4.96136 2.34374 4.8786 2.30593 4.78748C2.26812 4.69636 2.24866 4.59868 2.24866 4.50003C2.24866 4.40138 2.26812 4.3037 2.30593 4.21258C2.34374 4.12146 2.39915 4.0387 2.469 3.96903Z" fill="#FFFFFF"/>
</svg>
