<svg width="16" height="16" viewBox="0 0 24 24" fill="none" xmlns="http://www.w3.org/2000/svg">
<path fill-rule="evenodd" clip-rule="evenodd" d="M11.469 6.96903C11.5387 6.89918 11.6215 6.84377 11.7126 6.80596C11.8037 6.76815 11.9014 6.74869 12 6.74869C12.0987 6.74869 12.1964 6.76815 12.2875 6.80596C12.3786 6.84377 12.4614 6.89918 12.531 6.96903L21.531 15.969C21.6719 16.1099 21.751 16.3009 21.751 16.5C21.751 16.6992 21.6719 16.8902 21.531 17.031C21.3902 17.1719 21.1992 17.251 21 17.251C20.8009 17.251 20.6099 17.1719 20.469 17.031L12 8.56053L3.53103 17.031C3.3902 17.1719 3.1992 17.251 3.00003 17.251C2.80087 17.251 2.60986 17.1719 2.46903 17.031C2.3282 16.8902 2.24908 16.6992 2.24908 16.5C2.24908 16.3009 2.3282 16.1099 2.46903 15.969L11.469 6.96903Z" fill="#FFFFFF"/>
</svg>
