<svg width="16" height="16" viewBox="0 0 24 24" fill="none" xmlns="http://www.w3.org/2000/svg">
<path fill-rule="evenodd" clip-rule="evenodd" d="M6.969 2.46903C7.03867 2.39918 7.12143 2.34377 7.21255 2.30596C7.30366 2.26815 7.40135 2.24869 7.5 2.24869C7.59865 2.24869 7.69633 2.26815 7.78745 2.30596C7.87857 2.34377 7.96133 2.39918 8.031 2.46903L17.031 11.469C17.1008 11.5387 17.1563 11.6215 17.1941 11.7126C17.2319 11.8037 17.2513 11.9014 17.2513 12C17.2513 12.0987 17.2319 12.1964 17.1941 12.2875C17.1563 12.3786 17.1008 12.4614 17.031 12.531L8.031 21.531C7.89017 21.6719 7.69916 21.751 7.5 21.751C7.30083 21.751 7.10983 21.6719 6.969 21.531C6.82817 21.3902 6.74905 21.1992 6.74905 21C6.74905 20.8009 6.82817 20.6099 6.969 20.469L15.4395 12L6.969 3.53103C6.89915 3.46136 6.84374 3.3786 6.80593 3.28748C6.76812 3.19636 6.74866 3.09868 6.74866 3.00003C6.74866 2.90138 6.76812 2.8037 6.80593 2.71258C6.84374 2.62146 6.89915 2.5387 6.969 2.46903Z" fill="#FFFFFF"/>
</svg>
