<svg width="16" height="16" viewBox="0 0 24 24" fill="none" xmlns="http://www.w3.org/2000/svg">
<path fill-rule="evenodd" clip-rule="evenodd" d="M12.531 2.46903C12.6008 2.5387 12.6563 2.62146 12.6941 2.71258C12.7319 2.8037 12.7513 2.90138 12.7513 3.00003C12.7513 3.09868 12.7319 3.19636 12.6941 3.28748C12.6563 3.3786 12.6008 3.46136 12.531 3.53103L4.0605 12L12.531 20.469C12.6718 20.6099 12.7509 20.8009 12.7509 21C12.7509 21.1992 12.6718 21.3902 12.531 21.531C12.3902 21.6719 12.1992 21.751 12 21.751C11.8008 21.751 11.6098 21.6719 11.469 21.531L2.469 12.531C2.39915 12.4614 2.34374 12.3786 2.30593 12.2875C2.26812 12.1964 2.24866 12.0987 2.24866 12C2.24866 11.9014 2.26812 11.8037 2.30593 11.7126C2.34374 11.6215 2.39915 11.5387 2.469 11.469L11.469 2.46903C11.5387 2.39918 11.6214 2.34377 11.7125 2.30596C11.8037 2.26815 11.9013 2.24869 12 2.24869C12.0986 2.24869 12.1963 2.26815 12.2874 2.30596C12.3786 2.34377 12.4613 2.39918 12.531 2.46903Z" fill="#FFFFFF"/>
<path fill-rule="evenodd" clip-rule="evenodd" d="M18.531 2.46903C18.6008 2.5387 18.6563 2.62146 18.6941 2.71258C18.7319 2.8037 18.7513 2.90138 18.7513 3.00003C18.7513 3.09868 18.7319 3.19636 18.6941 3.28748C18.6563 3.3786 18.6008 3.46136 18.531 3.53103L10.0605 12L18.531 20.469C18.6007 20.5388 18.656 20.6215 18.6938 20.7127C18.7315 20.8038 18.7509 20.9014 18.7509 21C18.7509 21.0986 18.7315 21.1963 18.6938 21.2874C18.656 21.3785 18.6007 21.4613 18.531 21.531C18.4613 21.6008 18.3785 21.6561 18.2874 21.6938C18.1963 21.7316 18.0986 21.751 18 21.751C17.9014 21.751 17.8037 21.7316 17.7126 21.6938C17.6215 21.6561 17.5387 21.6008 17.469 21.531L8.469 12.531C8.39915 12.4614 8.34374 12.3786 8.30593 12.2875C8.26812 12.1964 8.24866 12.0987 8.24866 12C8.24866 11.9014 8.26812 11.8037 8.30593 11.7126C8.34374 11.6215 8.39915 11.5387 8.469 11.469L17.469 2.46903C17.5387 2.39918 17.6214 2.34377 17.7125 2.30596C17.8037 2.26815 17.9013 2.24869 18 2.24869C18.0986 2.24869 18.1963 2.26815 18.2874 2.30596C18.3786 2.34377 18.4613 2.39918 18.531 2.46903Z" fill="#FFFFFF"/>
</svg>
