<svg width="16" height="16" viewBox="0 0 24 24" fill="none" xmlns="http://www.w3.org/2000/svg">
<path fill-rule="evenodd" clip-rule="evenodd" d="M11.469 3.96903C11.5387 3.89918 11.6215 3.84377 11.7126 3.80596C11.8037 3.76815 11.9014 3.74869 12 3.74869C12.0987 3.74869 12.1964 3.76815 12.2875 3.80596C12.3786 3.84377 12.4614 3.89918 12.531 3.96903L21.531 12.969C21.6719 13.1099 21.751 13.3009 21.751 13.5C21.751 13.6992 21.6719 13.8902 21.531 14.031C21.3902 14.1719 21.1992 14.251 21 14.251C20.8009 14.251 20.6099 14.1719 20.469 14.031L12 5.56053L3.53103 14.031C3.3902 14.1719 3.1992 14.251 3.00003 14.251C2.80087 14.251 2.60986 14.1719 2.46903 14.031C2.3282 13.8902 2.24908 13.6992 2.24908 13.5C2.24908 13.3009 2.3282 13.1099 2.46903 12.969L11.469 3.96903Z" fill="#FFFFFF"/>
<path fill-rule="evenodd" clip-rule="evenodd" d="M11.469 9.96903C11.5387 9.89918 11.6215 9.84377 11.7126 9.80596C11.8037 9.76815 11.9014 9.74869 12 9.74869C12.0987 9.74869 12.1964 9.76815 12.2875 9.80596C12.3786 9.84377 12.4614 9.89918 12.531 9.96903L21.531 18.969C21.6719 19.1099 21.751 19.3009 21.751 19.5C21.751 19.6992 21.6719 19.8902 21.531 20.031C21.3902 20.1719 21.1992 20.251 21 20.251C20.8009 20.251 20.6099 20.1719 20.469 20.031L12 11.5605L3.53103 20.031C3.3902 20.1719 3.1992 20.251 3.00003 20.251C2.80087 20.251 2.60986 20.1719 2.46903 20.031C2.3282 19.8902 2.24908 19.6992 2.24908 19.5C2.24908 19.3009 2.3282 19.1099 2.46903 18.969L11.469 9.96903Z" fill="#FFFFFF"/>
</svg>
