<svg width="16" height="16" viewBox="0 0 24 24" fill="none" xmlns="http://www.w3.org/2000/svg">
<path fill-rule="evenodd" clip-rule="evenodd" d="M5.469 2.46903C5.53867 2.39918 5.62143 2.34377 5.71255 2.30596C5.80367 2.26815 5.90135 2.24869 6 2.24869C6.09865 2.24869 6.19633 2.26815 6.28745 2.30596C6.37857 2.34377 6.46133 2.39918 6.531 2.46903L15.531 11.469C15.6008 11.5387 15.6563 11.6215 15.6941 11.7126C15.7319 11.8037 15.7513 11.9014 15.7513 12C15.7513 12.0987 15.7319 12.1964 15.6941 12.2875C15.6563 12.3786 15.6008 12.4614 15.531 12.531L6.531 21.531C6.39017 21.6719 6.19916 21.751 6 21.751C5.80083 21.751 5.60983 21.6719 5.469 21.531C5.32817 21.3902 5.24905 21.1992 5.24905 21C5.24905 20.8009 5.32817 20.6099 5.469 20.469L13.9395 12L5.469 3.53103C5.39915 3.46136 5.34374 3.3786 5.30593 3.28748C5.26812 3.19636 5.24866 3.09868 5.24866 3.00003C5.24866 2.90138 5.26812 2.8037 5.30593 2.71258C5.34374 2.62146 5.39915 2.5387 5.469 2.46903Z" fill="#FFFFFF"/>
<path fill-rule="evenodd" clip-rule="evenodd" d="M11.469 2.46903C11.5387 2.39918 11.6214 2.34377 11.7125 2.30596C11.8037 2.26815 11.9013 2.24869 12 2.24869C12.0986 2.24869 12.1963 2.26815 12.2874 2.30596C12.3786 2.34377 12.4613 2.39918 12.531 2.46903L21.531 11.469C21.6008 11.5387 21.6563 11.6215 21.6941 11.7126C21.7319 11.8037 21.7513 11.9014 21.7513 12C21.7513 12.0987 21.7319 12.1964 21.6941 12.2875C21.6563 12.3786 21.6008 12.4614 21.531 12.531L12.531 21.531C12.3902 21.6719 12.1992 21.751 12 21.751C11.8008 21.751 11.6098 21.6719 11.469 21.531C11.3282 21.3902 11.249 21.1992 11.249 21C11.249 20.8009 11.3282 20.6099 11.469 20.469L19.9395 12L11.469 3.53103C11.3992 3.46136 11.3437 3.3786 11.3059 3.28748C11.2681 3.19636 11.2487 3.09868 11.2487 3.00003C11.2487 2.90138 11.2681 2.8037 11.3059 2.71258C11.3437 2.62146 11.3992 2.5387 11.469 2.46903Z" fill="#FFFFFF"/>
</svg>
