<svg width="16" height="16" viewBox="0 0 24 24" fill="none" xmlns="http://www.w3.org/2000/svg">
<path fill-rule="evenodd" clip-rule="evenodd" d="M2.469 6.96903C2.53867 6.89918 2.62143 6.84377 2.71255 6.80596C2.80367 6.76815 2.90135 6.74869 3 6.74869C3.09865 6.74869 3.19633 6.76815 3.28745 6.80596C3.37857 6.84377 3.46133 6.89918 3.531 6.96903L12 15.4395L20.469 6.96903C20.5387 6.8993 20.6215 6.84398 20.7126 6.80624C20.8037 6.7685 20.9014 6.74908 21 6.74908C21.0986 6.74908 21.1963 6.7685 21.2874 6.80624C21.3785 6.84398 21.4613 6.8993 21.531 6.96903C21.6007 7.03876 21.656 7.12154 21.6938 7.21265C21.7315 7.30376 21.7509 7.40141 21.7509 7.50003C21.7509 7.59864 21.7315 7.69629 21.6938 7.7874C21.656 7.87851 21.6007 7.9613 21.531 8.03103L12.531 17.031C12.4613 17.1009 12.3786 17.1563 12.2874 17.1941C12.1963 17.2319 12.0986 17.2514 12 17.2514C11.9013 17.2514 11.8037 17.2319 11.7125 17.1941C11.6214 17.1563 11.5387 17.1009 11.469 17.031L2.469 8.03103C2.39915 7.96136 2.34374 7.8786 2.30593 7.78748C2.26812 7.69636 2.24866 7.59868 2.24866 7.50003C2.24866 7.40138 2.26812 7.3037 2.30593 7.21258C2.34374 7.12146 2.39915 7.0387 2.469 6.96903Z" fill="#FFFFFF"/>
</svg>
