<svg width="16" height="16" viewBox="0 0 24 24" fill="none" xmlns="http://www.w3.org/2000/svg">
<path fill-rule="evenodd" clip-rule="evenodd" d="M17.031 2.46903C17.1008 2.5387 17.1563 2.62146 17.1941 2.71258C17.2319 2.8037 17.2513 2.90138 17.2513 3.00003C17.2513 3.09868 17.2319 3.19636 17.1941 3.28748C17.1563 3.3786 17.1008 3.46136 17.031 3.53103L8.5605 12L17.031 20.469C17.1718 20.6099 17.2509 20.8009 17.2509 21C17.2509 21.1992 17.1718 21.3902 17.031 21.531C16.8902 21.6719 16.6992 21.751 16.5 21.751C16.3008 21.751 16.1098 21.6719 15.969 21.531L6.969 12.531C6.89915 12.4614 6.84374 12.3786 6.80593 12.2875C6.76812 12.1964 6.74866 12.0987 6.74866 12C6.74866 11.9014 6.76812 11.8037 6.80593 11.7126C6.84374 11.6215 6.89915 11.5387 6.969 11.469L15.969 2.46903C16.0387 2.39918 16.1214 2.34377 16.2125 2.30596C16.3037 2.26815 16.4013 2.24869 16.5 2.24869C16.5986 2.24869 16.6963 2.26815 16.7874 2.30596C16.8786 2.34377 16.9613 2.39918 17.031 2.46903Z" fill="#FFFFFF"/>
</svg>
